<?xml version="1.0" encoding="UTF-8"?>
<!DOCTYPE svg PUBLIC "-//W3C//DTD SVG 1.1//EN" "http://www.w3.org/Graphics/SVG/1.1/DTD/svg11.dtd">
<svg version="1.1" xmlns="http://www.w3.org/2000/svg" xmlns:xlink="http://www.w3.org/1999/xlink" x="0" y="0" width="400" height="125" viewBox="0, 0, 400, 125">
  <defs>
    <clipPath id="Clip_1">
      <path d="M8.105,8.605 L118.636,8.605 L118.636,116.395 L8.105,116.395 z M8.105,8.605"/>
    </clipPath>
    <clipPath id="Clip_2">
      <path d="M8.105,8.605 L116.636,8.605 L116.636,116.395 L8.105,116.395 z M8.105,8.605"/>
    </clipPath>
    <clipPath id="Clip_3">
      <path d="M8.105,8.605 L119.636,8.605 L119.636,116.395 L8.105,116.395 z M8.105,8.605"/>
    </clipPath>
  </defs>
  <g id="surface1">
    <path d="M105.434,78.676 C105.434,79 105.27,79.164 105.024,79.328 C104.86,79.246 104.614,79.164 104.696,78.918 C104.778,78.676 104.778,78.43 105.024,78.348 C105.188,78.348 105.434,78.43 105.434,78.676" fill="#231F20"/>
    <g>
      <g clip-path="url(#Clip_1)">
        <path d="M78.988,11.438 C89.429,14.891 98.425,21.078 105.175,29.672 C113.046,39.953 117.386,52.727 116.421,66.781 C115.214,83.172 106.542,97.387 94.007,106.383 C89.351,109.598 84.128,112.09 78.667,113.855 C70.472,116.426 60.515,116.91 51.839,115.059 C38.746,112.41 27.417,105.098 19.468,94.816 C10.71,83.57 6.453,68.387 9.105,52.887 C12.64,30.957 30.472,13.609 52.16,9.75 C60.914,8.066 70.875,8.707 78.988,11.438 z M78.988,11.438" fill-opacity="0" stroke="#211D1D" stroke-width="0.219"/>
      </g>
      <g clip-path="url(#Clip_2)">
        <path d="M69.109,9.75 C55.855,7.824 43.082,11.359 32.96,17.785 C26.777,21.723 21.957,26.461 17.781,32.402 C15.289,36.262 12.96,40.516 11.593,45.094 C9.667,50.477 8.945,56.344 8.703,62.445 C9.023,78.352 15.609,92.086 26.535,101.969 C34.246,108.715 43.644,113.371 54.25,115.141 C63.003,116.586 72.562,115.621 80.433,112.891 C96.179,107.43 108.871,94.578 113.769,78.594 C117.546,67.188 116.742,52.809 112.003,42.125 C107.667,31.602 99.714,22.766 90.074,16.98 C83.73,13.285 76.738,10.715 69.109,9.75 M78.988,11.438 C89.429,14.895 98.425,21.078 105.175,29.672 C113.046,39.953 117.386,52.727 116.421,66.781 C115.214,83.172 106.542,97.387 94.007,106.383 C89.351,109.598 84.128,112.09 78.667,113.855 C70.472,116.426 60.515,116.906 51.839,115.059 C38.746,112.41 27.417,105.098 19.468,94.816 C10.71,83.57 6.453,68.391 9.105,52.887 C12.64,30.957 30.472,13.605 52.16,9.75 C60.917,8.066 70.875,8.707 78.988,11.438" fill="#231F20"/>
      </g>
      <g clip-path="url(#Clip_3)">
        <path d="M69.109,9.75 C55.855,7.824 43.082,11.359 32.96,17.785 C26.777,21.723 21.957,26.461 17.781,32.402 C15.289,36.262 12.96,40.516 11.593,45.094 C9.667,50.477 8.945,56.344 8.703,62.445 C9.023,78.352 15.609,92.086 26.535,101.969 C34.246,108.715 43.644,113.371 54.25,115.141 C63.003,116.586 72.562,115.621 80.433,112.891 C96.179,107.43 108.871,94.578 113.769,78.594 C117.546,67.188 116.742,52.809 112.003,42.125 C107.667,31.602 99.714,22.766 90.074,16.98 C83.73,13.285 76.738,10.715 69.109,9.75 z M78.988,11.438 C89.429,14.895 98.425,21.078 105.175,29.672 C113.046,39.953 117.386,52.727 116.421,66.781 C115.214,83.172 106.542,97.387 94.007,106.383 C89.351,109.598 84.128,112.09 78.667,113.855 C70.472,116.426 60.515,116.906 51.839,115.059 C38.746,112.41 27.417,105.098 19.468,94.816 C10.71,83.57 6.453,68.391 9.105,52.887 C12.64,30.957 30.472,13.605 52.16,9.75 C60.917,8.066 70.875,8.707 78.988,11.438 z M78.988,11.438" fill-opacity="0" stroke="#211D1D" stroke-width="0.437"/>
      </g>
      <path d="M80.308,15.312 C92.441,19.742 102.605,28.922 108.175,40.641 L109.406,43.184 C109.406,43.348 109.328,43.43 109.242,43.594 L109.078,43.43 C105.062,33.676 97.523,25.23 88.835,19.988 C76.867,12.281 59.328,10.066 45.308,15.234 C34.984,18.84 26.703,25.395 20.558,34.168 C15.312,41.953 12.031,51.297 11.949,61.625 C12.031,75.559 17.359,88.184 26.296,97.199 C37.851,109.328 56.457,115.477 74.57,111.215 C90.39,107.441 103.835,95.969 109.57,80.805 C113.343,71.625 113.996,59.574 111.21,49.738 C110.718,47.691 109.898,45.723 109.242,43.758 C109.242,43.594 109.492,43.758 109.57,43.758 C112.851,51.789 114.242,61.461 112.769,70.641 L111.703,75.723 C107.933,90.148 97.523,102.035 84.078,108.348 C77.605,111.297 70.312,113.016 62.441,112.938 C44.082,112.77 28.671,103.344 19.41,89.25 C16.867,84.984 14.738,80.641 13.343,75.805 C12.687,73.102 12.195,70.395 11.703,67.609 C10.886,57.773 12.523,48.02 16.703,39.902 C19.738,33.676 24.164,28.184 29.41,23.758 C41.21,13.922 58.015,9.496 74.16,13.43 C76.292,13.84 78.261,14.496 80.308,15.312" fill="#231F20"/>
      <path d="M63.671,16.297 C63.507,16.543 63.343,16.871 63.425,17.199 C63.507,17.609 63.753,18.102 64.246,18.02 C64.734,18.184 65.144,17.937 65.308,17.527 C65.308,17.199 65.472,16.789 65.226,16.543 C64.816,16.215 64.164,15.973 63.671,16.297 M65.8,15.48 C67.851,15.641 69.816,15.887 71.703,16.297 C71.867,16.379 72.113,16.461 71.949,16.625 L69.984,17.445 C65.718,19.66 61.539,21.789 57.851,24.656 C55.882,26.379 53.507,27.691 51.621,29.574 C51.046,30.066 50.394,29.414 49.656,29.492 C48.097,29.414 46.539,29.168 44.902,29.086 C43.589,29.168 42.523,28.676 41.292,28.758 C40.144,28.922 39.164,28.512 38.097,28.594 L35.23,28.43 C34.738,28.102 35.148,27.527 35.308,27.199 C36.867,24.496 39.738,22.609 42.277,20.805 C43.507,20.23 44.57,19.332 45.968,19.168 C46.21,19.496 46.21,19.902 46.292,20.23 C46.21,20.723 45.636,20.805 45.394,21.215 C44.738,21.707 44.164,22.199 43.589,22.691 L43.671,22.855 C45.23,22.773 46.621,22.035 48.179,22.199 C48.343,22.445 48.097,22.609 47.933,22.691 C46.457,23.43 44.98,23.922 43.507,24.824 C44.656,24.824 45.718,24.496 46.867,24.41 L49.082,24.332 C49.164,24.332 49.164,24.496 49.082,24.578 C47.195,25.23 45.394,26.133 43.753,27.035 C43.507,27.117 43.343,27.363 43.179,27.527 L43.343,27.691 L50.8,28.43 L51.292,28.184 C54.656,25.477 57.851,22.527 61.21,19.988 C61.375,19.66 61.785,19.496 61.867,19.168 L61.375,18.922 C59.57,18.512 57.687,18.184 55.882,17.691 C53.917,17.281 51.703,17.363 49.902,16.543 C49.738,16.379 49.82,16.297 49.902,16.215 L51.046,15.973 L59.41,15.312 C60.8,15.234 62.113,15.152 63.589,15.312 z M65.8,15.48" fill="#231F20"/>
      <path d="M64.82,16.871 C64.82,17.117 64.656,17.281 64.41,17.281 C64.246,17.199 64.082,17.117 64.082,16.953 C64.164,16.789 64.164,16.543 64.328,16.543 C64.57,16.461 64.82,16.625 64.82,16.871" fill="#231F20"/>
      <path d="M26.949,30.723 C26.707,30.969 26.375,31.297 26.539,31.789 C26.707,32.035 26.867,32.281 27.195,32.363 C27.769,32.445 28.343,32.117 28.507,31.707 C28.671,31.379 28.507,31.051 28.343,30.805 C28.015,30.559 27.359,30.395 26.949,30.723 M32.851,24.168 C32.359,25.398 31.867,26.625 31.375,27.855 C30.558,30.395 30.066,33.102 29.492,35.809 C29.492,36.871 29.246,37.855 29.082,38.922 C29,42.199 28.917,45.645 29.246,48.84 L29.656,53.43 L29.328,53.922 C25.804,57.199 22.523,61.051 19.164,64.25 C19,64.41 18.835,64.328 18.753,64.25 C17.031,61.871 16.621,58.918 16.457,55.887 L16.785,52.937 C17.359,52.609 18.261,52.691 18.753,53.02 L18.917,53.266 C18.835,55.395 18.179,57.445 18.507,59.574 C19.082,59.246 19.082,58.43 19.328,57.855 C19.738,56.461 20.226,55.148 20.804,53.84 C20.964,53.754 21.128,53.754 21.128,53.922 C20.886,55.641 20.722,57.199 20.886,59.082 C21.703,57.773 22.277,56.297 23.097,54.902 C23.425,54.414 23.589,53.676 24.082,53.266 L24.246,53.348 C23.753,55.066 23.179,56.789 22.933,58.676 C22.933,58.754 22.933,58.918 23.097,58.836 C24.82,57.035 26.375,55.148 28.015,53.266 C28.015,50.148 27.769,46.953 27.933,43.676 C27.687,41.133 27.851,38.512 27.851,35.969 L27.769,35.887 C26.785,36.379 25.804,37.199 24.98,37.937 C22.769,39.086 21.05,41.051 19.164,42.527 L19.082,42.445 C19.656,40.312 20.886,38.512 21.789,36.461 C23.507,32.855 26.457,29.906 29.082,27.035 C30.066,25.805 31.375,24.906 32.605,24.004 z M32.851,24.168" fill="#231F20"/>
      <path d="M28.015,31.543 C28.015,31.707 27.933,31.871 27.769,32.035 C27.441,32.117 27.359,31.789 27.195,31.625 C27.195,31.379 27.359,31.133 27.605,31.133 C27.851,31.051 28.015,31.297 28.015,31.543" fill="#231F20"/>
      <path d="M50.882,35.07 C50.554,35.148 50.226,35.312 50.062,35.641 C50.062,36.051 49.902,36.625 50.226,36.953 C50.636,37.117 51.128,36.953 51.457,36.789 C51.703,36.543 51.949,36.133 51.867,35.723 C51.703,35.395 51.292,35.07 50.882,35.07 M44.492,32.281 C47.359,32.773 50.39,32.773 53.097,33.512 L53.015,33.512 C53.835,33.84 54.98,33.84 55.882,34.25 C56.457,34.496 57.195,34.496 57.769,34.66 L60.226,35.312 C60.39,35.395 60.554,35.559 60.39,35.723 C57.605,36.133 54.734,36.297 52.195,37.363 C49.656,38.512 47.113,39.66 44.98,41.625 C44.82,41.625 44.734,41.789 44.574,41.625 C44.898,40.312 45.8,39.168 46.292,37.937 C47.031,36.707 47.687,35.395 48.261,34.082 L47.933,33.758 L45.8,33.594 L45.882,33.594 C45.558,33.348 44.898,33.594 44.492,33.43 C42.441,33.184 40.39,33.02 38.261,33.02 L35.144,33.102 L34.902,33.43 C34.574,35.805 33.753,38.02 33.671,40.477 C34,40.641 34.164,40.152 34.492,39.988 L36.375,38.266 L36.457,38.266 L36.375,38.922 C35.964,39.824 35.472,40.641 35.144,41.707 C35.39,41.871 35.554,41.543 35.882,41.461 C36.539,40.887 37.113,40.152 37.851,39.824 C38.097,39.906 37.933,40.152 37.851,40.312 C36.867,41.953 36.046,43.676 35.39,45.559 C35.554,45.805 35.718,45.477 35.882,45.477 C36.867,44.414 37.851,43.43 38.835,42.199 C39.164,42.117 39.328,42.363 39.492,42.609 L39.98,44.168 C38.917,45.477 37.359,46.625 36.128,47.773 C35.308,48.594 34.328,49.332 33.425,50.23 C32.769,50.312 33.015,49.414 32.851,49.004 C32.441,46.461 31.949,43.84 32.359,41.133 L32.687,37.855 C33.097,35.887 33.179,33.84 33.835,31.953 C34.082,31.707 34.492,32.035 34.902,31.789 C38.015,31.707 41.375,32.035 44.492,32.281" fill="#231F20"/>
      <path d="M51.457,35.969 C51.539,36.215 51.375,36.379 51.128,36.461 C50.964,36.625 50.636,36.461 50.554,36.215 C50.472,35.969 50.636,35.641 50.882,35.559 C51.128,35.559 51.457,35.723 51.457,35.969" fill="#231F20"/>
      <path d="M100.8,36.789 C100.554,37.035 100.554,37.363 100.554,37.691 C100.718,38.184 101.21,38.348 101.621,38.512 C101.949,38.43 102.113,38.184 102.277,37.855 C102.195,37.609 102.113,37.281 101.867,37.199 L101.867,37.527 C101.785,37.773 101.621,37.937 101.375,37.937 C101.21,37.773 100.964,37.691 101.046,37.363 C101.046,37.035 101.457,37.035 101.621,36.953 C101.539,36.543 101.046,36.625 100.8,36.789 M82.933,22.281 C84.57,22.937 86.457,23.512 87.687,24.742 L87.605,24.906 C86.21,24.824 84.98,24.332 83.589,24.332 L83.425,24.414 C84.488,25.805 85.964,26.625 87.113,27.855 L87.113,28.184 C86.457,27.855 85.882,27.445 85.226,27.117 C84.246,26.625 83.343,25.887 82.113,25.887 L82.195,26.215 L84.902,29.086 C84.98,29.742 84.082,29.414 83.671,29.66 C83.261,29.742 82.605,29.906 82.359,29.414 C81.703,28.102 80.636,27.035 79.734,25.887 L79.57,25.887 C79.734,26.871 80.472,27.609 80.882,28.594 C81.621,30.316 82.933,31.871 83.589,33.676 C84.652,34.496 85.964,34.578 87.195,35.07 C91.046,35.805 94.652,37.363 98.507,38.184 C98.75,37.691 98.425,37.199 98.339,36.707 C97.441,33.84 96.457,31.133 95.144,28.43 C95.144,28.102 94.57,27.773 94.898,27.445 L95.226,27.609 C98.097,30.395 100.718,33.266 102.605,36.625 L103.425,37.937 C104.164,39.004 104.57,40.559 105.39,41.625 C105.472,41.871 105.8,42.035 105.636,42.363 C104.816,42.281 104,41.953 103.257,41.625 C100.882,40.641 98.425,40.066 96.046,39.168 C94.816,38.922 93.832,38.266 92.687,37.937 C91.867,37.773 91.046,37.609 90.39,37.281 C88.671,36.789 86.949,36.215 85.226,35.641 C84.164,35.559 83.179,35.148 82.277,34.742 C81.457,33.184 81.046,31.461 80.144,29.906 C78.343,26.789 76.785,23.184 75.144,19.988 C75.144,19.66 75.636,19.742 75.882,19.906 L80.062,20.969 z M82.933,22.281" fill="#231F20"/>
      <path d="M72.769,40.148 C64.816,36.215 53.753,37.609 47.113,43.02 C44.164,45.395 41.867,48.266 40.144,51.543 C37.113,57.363 36.867,65.395 39.41,71.543 C42.851,79.984 50.636,85.969 60.062,87.035 C70.718,87.938 80.062,82.609 84.57,73.84 C87.933,67.855 88.179,58.922 85.144,52.609 C82.605,47.117 78.261,42.609 72.769,40.148 M85.308,51.871 C85.718,52.773 86.292,53.676 86.375,54.738 L86.539,54.902 C88.343,60.066 88.179,66.789 86.046,71.707 C82.851,79.738 76.292,85.066 67.933,87.199 C57.687,89.246 47.769,84.824 42.195,77.281 C37.277,71.051 35.722,61.051 38.917,53.266 C40.472,49.328 43.097,45.723 46.292,43.02 C49.82,40.148 54.328,38.102 59.164,37.527 C70.718,36.133 80.718,42.445 85.308,51.871" fill="#231F20"/>
      <path d="M78.425,38.102 C78.097,38.02 77.851,38.348 77.605,38.594 C77.441,38.922 77.605,39.25 77.769,39.492 C78.015,39.82 78.507,39.906 78.917,39.82 C79.328,39.574 79.246,38.922 79.164,38.43 C79,38.184 78.753,38.02 78.425,38.102 M71.785,22.363 C72.523,23.512 73.261,24.906 74.082,25.887 C75.39,28.266 77.031,30.23 77.851,32.773 C78.753,34.902 79.734,36.871 80.636,39.086 L81.867,43.266 C81.867,43.348 81.867,43.594 81.703,43.512 C79.734,41.297 77.031,39.988 74.734,38.266 C73.589,37.773 72.359,37.281 71.292,36.625 L71.375,36.461 C73.671,36.215 75.882,36.543 78.097,36.707 C78.507,36.215 78.015,35.887 77.933,35.477 C77.113,34.004 76.375,32.527 75.472,31.133 C74,28.512 72.441,25.969 70.636,23.43 C70.144,22.937 69.574,23.43 69.082,23.594 C66.785,24.824 64.164,25.398 62.113,27.117 C61.703,27.363 61.292,27.527 61.046,27.855 L61.128,28.02 C63.261,27.773 65.308,27.363 67.359,27.117 C67.605,27.363 67.277,27.445 67.195,27.527 C65.636,28.102 63.917,28.43 62.441,29.168 C62.359,29.25 62.277,29.332 62.359,29.414 C63.589,29.824 64.98,29.742 66.292,30.066 C66.375,30.152 66.457,30.316 66.375,30.477 C64.734,30.805 62.933,30.805 61.375,31.215 L61.457,31.379 C63.015,32.199 64.57,32.773 66.21,33.348 C66.292,33.43 66.292,33.594 66.21,33.676 C64.898,33.836 64,33.43 62.687,33.348 C60.308,33.266 58.425,32.117 56.375,31.379 C55.964,31.051 55.39,31.051 55.226,30.559 L55.308,30.23 C57.441,28.184 59.98,26.871 62.359,25.312 C65.062,23.922 67.933,22.691 70.8,21.707 C71.292,21.625 71.621,22.035 71.785,22.363" fill="#231F20"/>
      <path d="M78.753,38.594 C78.917,38.922 78.667,39.25 78.343,39.332 C78.179,39.332 78.015,39.168 77.933,39.004 C77.933,38.758 78.097,38.594 78.179,38.43 C78.425,38.43 78.589,38.512 78.753,38.594" fill="#231F20"/>
      <path d="M69.691,42.742 C63.636,40.437 55.789,41.379 50.757,44.875 C44.023,49.223 39.929,57.496 41.55,66.195 C43.085,74.293 49.222,80.688 56.984,82.824 C65.683,85.125 74.722,81.715 79.582,75.062 C83.761,69.777 84.871,61.59 82.308,55.105 C79.839,49.309 75.574,44.961 69.691,42.742 M82.308,53.828 C84.527,58.434 84.785,64.742 82.992,69.688 C79.925,78.047 72.335,83.93 62.781,84.102 C53.656,84.188 46.07,78.73 42.57,71.055 C40.695,66.875 40.015,61.246 41.464,56.641 C43.765,48.969 50.16,42.914 58.265,41.379 C61.164,40.781 64.316,40.867 67.218,41.547 C73.867,43 79.414,47.602 82.308,53.828" fill="#231F20"/>
      <path d="M69.691,42.742 C63.636,40.437 55.789,41.379 50.757,44.875 C44.023,49.223 39.929,57.496 41.55,66.195 C43.085,74.293 49.222,80.688 56.984,82.824 C65.683,85.125 74.722,81.715 79.582,75.062 C83.761,69.777 84.871,61.59 82.308,55.105 C79.839,49.309 75.574,44.961 69.691,42.742 z M82.308,53.828 C84.527,58.434 84.785,64.742 82.992,69.688 C79.925,78.047 72.335,83.93 62.781,84.102 C53.656,84.188 46.07,78.73 42.57,71.055 C40.695,66.875 40.015,61.246 41.464,56.641 C43.765,48.969 50.16,42.914 58.265,41.379 C61.164,40.781 64.316,40.867 67.218,41.547 C73.867,43 79.414,47.602 82.308,53.828 z M82.308,53.828" fill-opacity="0" stroke="#211D1D" stroke-width="0.455"/>
      <path d="M34.082,55.969 C33.917,56.051 33.671,55.969 33.589,56.133 C33.343,56.461 33.425,56.953 33.507,57.363 C33.753,57.609 34.082,57.773 34.492,57.691 C34.738,57.445 35.066,57.117 34.984,56.707 C34.82,56.297 34.574,55.805 34.082,55.969 M38.097,50.234 C36.375,52.773 36.046,56.133 35.554,59.332 C35.554,61.051 35.066,62.609 35.148,64.41 L35.066,64.328 L34.328,62.691 C33.753,60.805 33.179,58.836 32.441,57.035 C32.113,56.707 31.867,57.199 31.621,57.363 C28.671,60.148 25.558,63.348 23.343,66.707 C23.425,67.199 23.835,67.609 24.246,67.934 C25.64,69.578 26.949,70.723 28.589,71.871 C28.753,71.871 28.835,71.625 28.835,71.379 C28.835,70.312 28.589,69.25 28.671,68.266 C29.082,68.266 29,68.84 29.246,69.082 C29.656,69.988 29.902,70.805 30.394,71.625 L30.558,71.543 C30.722,70.477 30.476,69.492 30.558,68.43 C30.64,68.184 30.886,68.266 30.968,68.43 C31.375,69.328 31.703,70.395 32.277,71.297 L32.359,71.297 C32.441,70.395 32.277,69.41 32.195,68.43 C32.277,68.016 32.769,68.102 33.097,68.184 C33.507,68.184 33.835,68.344 34,68.672 C34.656,71.133 34.574,73.922 34.656,76.461 C34.574,76.707 34.492,76.953 34.246,77.035 C33.507,76.871 32.933,76.297 32.195,75.969 C28.343,73.676 24.41,70.969 21.21,67.691 C20.964,67.363 21.292,67.035 21.457,66.707 C23.097,64.82 24.902,62.855 26.539,61.051 C27.441,60.234 28.179,58.922 29.082,58.184 C31.128,56.379 32.769,54.66 34.82,52.855 C35.804,51.953 36.703,50.641 37.769,49.824 L38.097,49.906 z M38.097,50.234" fill="#231F20"/>
      <path d="M34.656,56.789 C34.738,57.035 34.492,57.281 34.246,57.363 C34.082,57.445 33.753,57.281 33.671,57.117 C33.589,56.789 33.917,56.625 34.082,56.461 C34.41,56.379 34.574,56.543 34.656,56.789" fill="#231F20"/>
      <path d="M90.226,58.266 C89.898,58.43 89.656,58.84 89.734,59.332 C89.816,59.738 90.226,59.906 90.554,60.148 C90.882,60.23 91.292,60.23 91.457,59.906 C91.785,59.574 91.785,59.086 91.621,58.676 C91.375,58.266 90.8,58.184 90.226,58.266 M92.851,41.871 C95.226,42.773 97.933,43.348 100.062,44.578 C100.554,44.906 100.148,45.395 100.062,45.723 C98.835,48.512 97.523,51.051 96.128,53.758 C94.324,56.953 92.359,60.312 90.144,63.266 L89.98,63.18 L89.816,62.117 C89.406,59.168 88.671,56.379 87.933,53.594 L87.277,51.625 L87.359,51.379 C87.851,51.543 87.769,52.199 88.097,52.445 C89.324,54.004 90.144,55.641 91.292,57.199 L92.113,58.266 L92.277,58.266 C94.57,54.82 96.621,51.133 98.179,47.281 C98.339,46.625 98.671,46.051 98.671,45.395 C96.292,44.168 93.832,43.02 91.292,42.281 L90.636,42.281 C90.882,43.594 91.785,44.496 92.359,45.641 L92.277,45.969 L91.949,45.805 C91.21,45.066 90.39,44.168 89.488,43.594 L89.406,43.758 C89.816,44.578 90.39,45.312 90.718,46.133 C90.718,46.297 90.554,46.379 90.39,46.297 C89.324,45.312 88.425,44.414 87.441,43.43 C87.359,43.43 87.195,43.348 87.195,43.512 C87.769,44.656 88.343,45.723 88.996,46.789 C89.164,46.953 89.078,47.199 88.996,47.445 C88.507,47.609 88.015,47.855 87.441,47.691 C85.964,45.477 85.144,42.773 84.246,40.148 C84.246,39.984 84.246,39.742 84.488,39.742 C87.441,40.066 89.98,41.215 92.851,41.871" fill="#231F20"/>
      <path d="M90.964,59.082 C90.882,59.332 90.636,59.332 90.39,59.246 C90.308,59.168 90.308,59.004 90.39,58.836 C90.554,58.676 90.964,58.836 90.964,59.082" fill="#231F20"/>
      <path d="M17.113,71.461 C16.867,71.461 16.785,71.789 16.621,72.035 C16.457,72.445 16.785,72.938 17.031,73.184 C17.359,73.348 17.933,73.426 18.179,73.102 C18.343,72.691 18.343,72.199 18.179,71.789 C17.933,71.461 17.523,71.379 17.113,71.461 M19.738,70.148 L20.476,70.887 C22.523,72.527 24.492,74.332 26.707,75.723 C28.589,77.363 30.804,78.676 32.851,80.152 C33.425,80.641 34.328,80.805 34.656,81.543 C35.23,85.723 36.21,89.656 36.703,93.918 L37.277,96.625 C37.195,96.789 37.113,97.035 36.867,96.953 C35.636,96.789 34.656,96.297 33.589,95.969 C30.472,94.41 27.523,92.527 25.062,90.148 C24.82,89.902 24.734,89.41 24.98,89.082 C25.394,88.754 25.718,88.02 26.375,88.266 C27.851,89.82 29.246,91.707 30.964,92.934 L30.964,92.688 C30.148,90.969 29.246,89.41 28.507,87.605 L28.753,87.605 C29.656,88.84 30.886,89.984 31.949,91.051 C32.113,91.051 32.195,91.133 32.195,90.969 C31.867,89.25 31.375,87.605 30.964,85.969 C30.964,85.887 31.128,85.887 31.21,85.887 C32.277,87.691 33.425,89.656 34.574,91.461 C34.816,91.625 34.984,92.199 35.39,92.035 L35.308,91.215 C34.656,88.02 34,84.824 33.097,81.789 C31.375,80.23 28.917,79.004 27.031,77.445 C24.902,75.559 22.769,74.246 20.554,72.605 C20.312,72.527 20.226,72.855 20.226,73.016 C20.226,74.574 20.476,76.133 20.39,77.77 L20.554,84.164 C20.226,84.25 20.066,83.758 19.902,83.512 C18.343,80.477 16.949,77.363 16.296,73.922 L15.804,72.199 L14.82,66.051 L14.902,65.477 L15.066,65.477 z M19.738,70.148" fill="#231F20"/>
      <path d="M17.851,72.199 C18.015,72.445 17.851,72.773 17.605,72.855 C17.277,72.938 16.949,72.938 16.867,72.605 C16.867,72.363 16.949,72.117 17.277,71.953 C17.523,71.871 17.687,72.035 17.851,72.199" fill="#231F20"/>
      <path d="M105.39,77.773 C105.144,77.855 104.98,78.102 104.898,78.344 C104.734,78.754 104.816,79.164 105.062,79.492 C105.308,79.738 105.882,79.902 106.21,79.574 C106.457,79.246 106.867,78.754 106.539,78.266 C106.292,77.855 105.882,77.691 105.39,77.773 M105.636,49.41 C106.539,51.133 107.031,53.184 107.523,55.148 C107.933,56.707 107.933,58.43 108.097,60.07 C108.097,60.23 108.015,60.477 107.769,60.395 C107.113,60.148 106.375,59.984 106.046,59.332 C106.128,57.281 106.046,55.23 105.8,53.266 C105.718,53.02 105.636,52.855 105.472,52.691 L105.308,53.02 L104.898,56.379 C104.652,57.363 104.734,58.348 104.488,59.246 L104.324,59.246 C104.078,57.363 104.078,55.395 103.507,53.676 C103.257,54.004 103.343,54.492 103.343,54.984 L103.507,56.625 L103.343,60.23 C103.257,60.312 103.257,60.477 103.179,60.395 L102.933,60.148 L102.523,57.937 L101.539,54.66 L101.292,54.492 C100.144,55.477 99.734,56.953 98.835,58.184 L98.261,59.656 C98.917,62.281 99.98,64.656 100.718,67.199 C101.621,69.984 102.437,72.691 103.257,75.559 C103.507,75.887 103.425,76.461 103.753,76.871 C104.324,76.789 104.406,76.051 104.816,75.723 C107.031,72.527 108.832,68.918 109.898,64.902 C109.98,64.656 109.898,64.164 110.226,64.164 L110.39,64.656 C110.226,67.035 110.226,69.574 109.656,71.871 C109.328,73.348 109.164,74.902 108.425,76.297 C107.605,79 106.457,81.625 105.144,84 C105.062,84.082 104.734,84.082 104.734,83.922 C103.667,79.414 102.031,75.312 100.882,70.887 C99.656,67.363 98.425,63.676 97.031,60.148 C96.621,59.738 96.785,59.082 97.113,58.676 C99.082,54.82 101.128,50.969 103.257,47.199 C103.425,46.953 103.753,47.281 103.917,47.281 z M105.636,49.41" fill="#231F20"/>
      <path d="M40.226,79.492 C39.902,79.656 39.902,80.148 40.062,80.477 C40.226,80.887 40.636,81.215 41.21,81.051 C41.457,80.887 41.703,80.559 41.539,80.23 C41.375,79.82 40.8,79.246 40.226,79.492 M38.753,74.984 C39.98,76.707 41.046,78.18 42.523,79.656 C43.753,81.297 45.062,82.691 46.621,84.082 L46.539,84.328 C44.574,83.836 42.605,83.262 40.636,82.691 C40.39,82.691 39.902,82.527 39.82,82.852 C39.98,85.969 40.39,89 40.8,92.031 C41.128,93.098 41.292,94.246 41.539,95.23 L41.785,95.477 C44,95.395 46.046,95.23 48.097,94.984 C49.082,94.574 50.39,94.738 51.21,94.168 C50.39,93.508 49.328,93.098 48.343,92.688 L48.343,92.527 C49.164,92.445 49.984,92.609 50.882,92.688 L50.882,92.609 C50.39,92.277 49.82,91.871 49.164,91.625 C49.164,91.543 49.082,91.379 49.164,91.297 C50.062,91.379 50.882,91.461 51.785,91.625 L52.933,91.789 L53.015,91.707 C52.113,90.969 50.882,90.805 49.82,90.312 C49.41,89.82 49.984,89.25 50.062,88.754 C50.636,88.594 51.21,89 51.703,89.25 C53.753,90.641 55.8,91.543 57.277,93.59 C57.441,93.918 57.113,94.086 56.949,94.168 L54,94.82 L51.046,95.395 C47.769,96.133 44.41,96.543 40.964,96.871 C40.39,96.789 40.39,96.215 40.308,95.805 C39.574,93.508 39.492,90.969 39.164,88.594 C38.753,85.23 38.343,81.707 38.425,78.18 C38.507,77.035 38.179,76.051 38.343,74.984 C38.425,74.82 38.671,74.984 38.753,74.984" fill="#231F20"/>
      <path d="M41.292,80.312 C41.21,80.641 41.046,80.805 40.8,80.805 C40.476,80.805 40.476,80.559 40.394,80.312 C40.476,80.23 40.476,79.984 40.636,79.984 C40.964,79.984 41.21,80.066 41.292,80.312" fill="#231F20"/>
      <path d="M83.343,81.297 C83.671,81.297 83.917,81.297 84.082,81.461 C84.246,81.789 84.164,82.199 83.996,82.441 C83.753,82.691 83.343,82.691 83.175,82.441 C82.933,82.199 82.933,81.707 83.175,81.461 L82.605,81.953 C82.441,82.281 82.769,82.691 83.015,82.773 C83.261,82.938 83.585,82.938 83.835,82.691 C84.082,82.363 84.738,82.117 84.492,81.461 C84.246,81.133 83.585,80.969 83.343,81.297 M71.375,20.066 C70.554,20.23 69.652,20.23 68.917,20.641 C65.308,22.199 61.785,24.414 58.753,26.871 C56.703,28.184 54.574,29.66 52.933,31.297 L53.015,31.543 C55.554,31.953 57.933,33.02 60.476,33.512 L60.476,33.594 C61.703,34.004 63.015,34.414 64.41,34.414 C66.128,34.332 67.933,34.168 69.492,33.676 C69.734,33.594 69.82,33.512 69.82,33.266 C68.835,32.855 67.851,32.609 66.867,32.117 C66.539,31.953 65.964,31.953 65.636,31.707 C65.636,31.543 65.718,31.461 65.882,31.543 C67.523,31.789 69.324,31.871 71.046,32.035 L71.128,31.953 C69.902,30.887 68.261,29.984 66.867,29.004 L66.785,28.758 C66.785,28.676 66.867,28.594 67.031,28.594 C68.261,29.004 69.492,29.496 70.718,29.906 L71.785,30.148 L71.867,30.066 C70.964,28.43 69.41,27.363 68.097,26.051 C68.015,25.887 67.851,25.723 68.015,25.641 C68.671,25.312 69.652,24.824 70.312,25.395 C70.964,26.297 71.457,27.199 72.113,28.02 C73.425,30.148 74.82,32.445 76.21,34.496 C76.21,34.742 76.375,34.984 76.21,35.148 C74.164,35.559 71.949,34.906 69.902,35.395 C67.933,35.477 65.964,35.148 64,35.477 C61.621,35.066 59.164,34.332 56.867,33.512 C54,32.773 51.046,32.035 48.015,31.461 C46.375,31.133 44.656,31.051 43.015,30.805 L33.589,30.395 L33.015,30.559 C32.031,34.25 31.457,38.184 31.375,42.199 C31.292,44.004 31.457,45.969 31.539,47.773 L32.195,52.117 L32.441,52.281 C33.015,52.281 33.343,51.625 33.753,51.215 C35.8,49.66 37.523,47.855 39.574,46.133 L41.703,42.773 L42.441,40.887 C42.605,40.23 43.015,39.578 42.933,38.922 L42.605,38.922 C41.539,39.578 40.8,40.559 39.82,41.297 C39.656,41.379 39.41,41.297 39.41,41.133 C40.148,39.66 41.292,38.512 42.113,37.199 C42.113,36.953 41.867,36.871 41.703,36.871 C40.312,37.199 39.082,37.691 37.851,38.266 C37.687,38.348 37.605,38.184 37.605,38.02 C38.425,37.117 39.656,36.707 40.476,35.887 L40.476,35.723 C39.902,35.559 39.328,35.723 38.835,35.805 C37.359,36.051 36.457,36.953 35.148,37.527 C34.656,37.117 35.394,36.625 35.312,36.133 C35.476,35.641 35.312,34.906 35.8,34.578 L39.656,34.332 C41.703,34.25 43.671,34.578 45.718,34.496 C46.046,34.578 46.539,34.578 46.539,34.984 C46.128,36.461 45.718,37.937 44.82,39.25 C43.917,41.215 43.015,43.02 41.867,44.824 C40.312,47.117 37.851,48.922 36.046,50.887 L33.179,53.348 C30.554,55.723 28.097,58.348 25.558,60.805 C23.671,62.609 22.113,64.574 20.636,66.543 C20.476,66.871 19.82,67.199 20.066,67.691 C23.343,71.297 26.867,74 30.882,76.625 L34.984,78.676 C35.148,78.758 35.394,78.758 35.476,78.59 C35.554,76.297 35.8,73.758 35.636,71.461 C35.636,69.004 34.246,67.363 33.343,65.312 C33.179,65.148 33.097,64.656 32.769,64.742 L32.195,66.461 C32.195,66.543 32.031,66.707 31.949,66.543 C31.785,65.559 31.867,64.414 31.621,63.43 C31.539,63.512 31.457,63.512 31.457,63.512 C31.21,64.656 30.882,65.641 30.554,66.707 C30.476,66.789 30.23,66.953 30.148,66.707 C30.066,65.723 29.902,64.742 29.902,63.758 L29.902,62.773 C29.738,62.691 29.738,62.855 29.574,62.855 C29,64.328 28.261,65.559 27.769,67.035 C26.785,67.605 25.8,66.953 25.066,66.461 C24.82,65.887 25.312,65.641 25.636,65.312 C27.277,64.004 28.097,62.199 29.656,60.969 C30.312,60.477 30.64,59.574 31.292,59.086 C31.457,59.004 31.785,58.922 31.867,59.086 C32.359,60.066 32.769,60.969 33.097,62.035 C33.917,64.742 35.312,67.281 36.457,69.738 L36.949,71.379 C38.015,73.426 37.277,76.215 37.605,78.508 C37.523,81.461 38.097,84.25 38.261,87.117 L38.835,90.641 C39.082,92.609 39.41,94.496 39.902,96.379 C40.066,96.953 40.148,97.691 40.636,97.938 L42.605,97.855 L47.277,97.445 L52.113,96.625 C54.246,96.133 56.21,95.395 58.179,94.574 C58.507,94.246 59.246,94.328 59.246,93.758 C57.441,92.035 55.8,90.23 53.589,88.918 C51.457,87.938 49.328,87.199 46.949,86.789 C46.457,86.871 45.882,86.625 45.554,86.953 C46.457,87.605 47.277,88.344 48.179,89.082 L48.261,89.328 C48.179,89.41 48.179,89.574 47.933,89.574 C46.703,89.164 45.636,88.344 44.41,88.344 L44.41,88.43 C45.394,89.41 46.457,90.23 47.359,91.215 L47.359,91.543 C46.785,91.543 46.375,91.051 45.882,90.887 C45.066,90.395 44.164,89.82 43.179,89.738 C43.835,91.051 44.82,92.035 45.718,93.184 C45.882,93.43 46.375,93.758 46.128,94.168 C44.984,94.328 43.671,94.328 42.441,94.328 L42.113,94.168 C41.785,92.855 41.621,91.379 41.292,90.066 C41.046,88.344 40.718,86.707 40.554,84.984 C40.554,84.492 40.312,83.672 40.8,83.43 C42.933,83.836 44.738,84.738 46.867,85.312 L53.425,87.281 C54.082,87.605 54.816,87.691 55.394,88.02 L57.031,89.656 C59.082,91.707 61.621,93.836 64.164,95.477 C65.964,96.625 67.851,97.855 69.652,98.918 C71.292,99.82 72.851,100.969 74.656,101.379 C77.933,97.855 79.738,93.348 81.867,89.082 C82.113,88.184 82.605,87.281 82.605,86.215 C82.277,86.133 81.867,86.215 81.539,86.297 L77.687,86.871 C76.621,87.035 75.472,86.789 74.492,87.199 C72.605,88.512 70.718,89.492 68.835,90.805 L68.753,90.969 C69.734,91.215 70.882,91.133 71.949,91.215 C72.113,91.297 72.277,91.461 72.195,91.625 C71.457,92.117 70.39,92.035 69.652,92.527 C70.062,92.773 70.718,92.609 71.128,92.773 C71.867,92.934 72.851,92.688 73.261,93.348 C72.441,94.086 71.128,93.672 70.148,94.086 C70.882,94.738 72.031,94.496 73.015,94.66 C73.589,94.984 74.734,94.496 74.902,95.477 C74.57,96.051 74.41,96.871 73.671,97.117 C70.554,95.969 67.687,94.328 64.902,92.527 C64.734,92.445 64.734,92.199 64.82,92.035 L66.621,90.969 C68.097,89.82 70.148,89 71.703,87.852 C72.769,86.871 74.246,86.543 75.636,85.969 C76.539,85.887 77.523,85.641 78.343,85.395 L81.046,85.066 C85.476,84.25 90.062,83.922 94.082,82.363 C96.292,81.871 98.261,80.723 100.472,80.23 C100.718,80.066 101.292,80.066 101.21,79.574 C100.39,76.625 99.656,73.594 98.671,70.805 C97.687,67.691 96.128,64.742 94.16,62.281 L93.832,62.281 C93.015,63.348 92.277,64.496 91.621,65.641 C90.554,67.773 90.144,70.148 89.656,72.523 C89.574,73.184 89.406,74 89.574,74.578 C90.062,74.086 90.718,73.512 90.964,72.855 L90.718,72.855 C90.472,72.773 90.39,72.445 90.39,72.199 C90.718,70.477 91.457,69.082 92.195,67.527 C93.015,66.543 93.343,65.395 94.16,64.414 L94.488,64.328 C95.226,65.477 95.554,66.871 96.457,67.938 C96.867,69.328 97.687,70.641 98.097,72.035 C98.917,74.332 99.57,76.707 100.066,79.086 L99.82,79.492 C97.441,80.395 94.898,80.805 92.441,81.625 C87.933,82.938 83.261,84 78.589,84.824 C78.425,84.824 78.015,84.902 78.097,84.574 C79.328,83.672 80.476,82.773 81.621,81.707 C83.835,79.492 85.636,76.625 87.031,73.84 C87.195,73.84 87.277,73.84 87.277,73.922 L86.375,81.625 L86.539,81.871 C88.179,81.625 89.656,81.051 91.21,80.641 C93.015,80.477 94.656,79.742 96.457,79.246 C97.031,78.84 98.015,79.004 98.179,78.18 C98.097,75.805 97.851,73.426 96.785,71.461 L96.621,71.461 C96.046,72.445 95.718,73.758 95.226,74.902 C95.144,74.984 94.98,75.148 94.898,74.984 C94.738,73.016 95.144,71.297 95.144,69.41 L94.98,69.25 L93.343,72.523 L93.015,72.691 C92.769,72.363 92.851,71.707 92.933,71.297 C93.097,70.395 93.421,69.41 93.343,68.508 C92.359,69.656 91.785,71.051 91.21,72.445 L91.21,72.523 L91.457,72.281 C91.621,72.199 92.031,72.117 92.113,72.363 C91.785,73.512 91.046,74.578 90.8,75.805 C91.949,75.066 92.933,74.332 93.832,73.426 C94,73.348 94.242,73.348 94.242,73.512 C94,74.332 93.261,74.902 92.769,75.559 C92.277,76.379 91.539,76.953 91.292,77.855 L91.621,77.855 C93.261,77.035 94.738,75.969 96.457,75.312 C97.195,75.887 96.867,76.953 97.031,77.77 C97.031,78.102 96.621,78.266 96.292,78.344 C95.226,78.426 94.488,79.004 93.421,79.004 C91.539,79.246 89.816,80.148 87.851,79.984 C87.687,79.004 87.769,77.855 87.851,76.871 C87.933,75.559 88.179,74.414 88.261,73.184 C88.261,72.035 88.753,71.133 88.753,70.066 L89.574,65.395 C90.882,63.512 92.195,61.871 93.343,59.984 C95.718,56.379 97.441,52.937 99.242,49.004 C99.898,47.363 100.882,45.887 101.539,44.168 C101.128,43.84 100.636,43.43 100.148,43.348 C98.261,42.445 96.128,41.789 94.082,41.051 C92.359,40.395 90.554,40.066 88.753,39.66 C86.539,39.332 84.738,38.102 82.359,38.184 L82.359,38.266 C83.175,40.969 84.246,43.676 85.554,46.297 L86.785,48.02 C87.769,49.004 88.753,49.906 89.98,50.805 L90.062,50.723 C90.226,49.66 89.898,48.594 89.656,47.609 C89.656,47.445 89.898,47.363 89.98,47.527 C90.472,48.43 91.128,49.168 91.703,49.984 C92.031,48.922 91.457,47.773 91.703,46.543 L92.031,46.543 C92.687,47.609 92.851,49.004 93.589,49.984 L93.753,49.742 C94.328,48.348 94.16,46.543 94.16,44.984 C94.328,44.742 94.57,44.656 94.816,44.656 C95.964,44.906 97.031,45.395 97.769,46.215 C96.457,49.168 94.738,51.871 93.261,54.82 C93.097,55.148 92.769,55.641 92.359,55.477 L89.492,52.527 L83.917,45.723 L83.425,44.656 C81.375,38.676 79.41,32.609 76.046,27.199 C74.98,25.148 73.589,23.266 72.523,21.215 C72.113,20.805 72.195,20.066 71.375,20.066 M80.964,18.758 C82.605,19.578 84.164,20.395 85.8,21.133 C88.015,22.363 89.98,23.512 91.949,25.148 C93.015,27.691 94.328,30.066 95.39,32.609 C95.718,33.594 95.964,34.578 96.539,35.477 C96.621,35.641 96.703,35.969 96.539,36.133 L95.8,36.051 C92.769,35.23 89.406,34.742 86.703,33.512 C85.718,33.348 84.816,32.855 84.406,31.953 C84.324,31.543 83.835,30.969 84.246,30.559 C85.476,30.887 86.703,31.461 87.933,31.789 C89.082,32.363 90.312,33.02 91.621,33.266 L91.703,33.184 C90.226,31.707 88.589,30.805 86.949,29.578 C86.867,29.414 86.785,29.25 86.949,29.086 C87.605,28.922 87.933,29.578 88.589,29.742 C89.734,30.395 91.128,30.969 92.441,31.461 L92.441,31.297 C90.8,29.578 88.753,28.266 86.867,26.625 C86.785,26.461 86.621,26.297 86.785,26.297 C87.277,26.215 87.441,26.707 87.851,26.789 C89.406,27.773 91.046,28.43 92.523,29.332 C92.769,29.168 92.523,28.84 92.441,28.594 C90.964,25.559 88.343,23.676 85.636,21.953 C82.277,20.066 78.507,19.086 74.41,19.004 C74,19.168 73.507,19.086 73.261,19.414 C75.148,23.43 77.441,27.199 79.328,31.215 C80.066,32.855 80.8,34.168 81.539,35.805 C82.195,36.461 83.015,36.707 83.917,36.953 C85.8,37.445 87.769,37.855 89.734,38.348 C92.441,39.004 95.062,39.824 97.687,40.723 C100.308,41.707 102.687,42.855 105.23,44.086 L107.441,45.477 C108.093,47.363 108.671,49.414 108.996,51.461 C109.16,52.445 109.246,53.348 109.656,54.25 C110.062,55.887 110.062,57.691 109.734,59.41 C109.246,62.773 108.671,66.051 107.195,69.004 C106.375,70.805 105.472,72.523 104.406,74.168 C104.246,74.332 104.164,74 104.164,73.922 C103.835,72.035 103.015,70.395 102.441,68.594 C101.539,65.887 100.964,62.855 99.734,60.395 L99.242,59.086 C99.82,58.512 100.226,57.691 100.964,57.445 L101.21,57.609 C102.195,60.312 102.441,63.266 103.179,66.051 C103.589,65.805 103.667,65.23 103.75,64.742 C104,63.758 104.164,62.855 104.406,61.871 L104.57,61.871 C104.82,63.266 104.57,64.902 104.82,66.297 L104.898,66.461 C105.718,65.066 105.882,63.348 106.292,61.789 C106.375,61.625 106.539,61.707 106.703,61.789 C106.457,63.676 106.21,65.395 106.21,67.281 L106.292,67.363 C108.015,64.902 108.75,61.953 109.16,58.758 C109.16,55.805 107.929,53.184 107.195,50.477 C106.457,48.594 105.39,46.871 103.75,45.723 C103.507,45.559 103.179,45.723 103.097,45.969 C101.621,48.348 100.308,50.723 99,53.02 C97.851,55.23 96.375,57.199 95.472,59.656 C96.128,61.379 96.867,62.855 97.523,64.496 C98.589,66.707 99.082,69.082 99.98,71.379 C100.472,73.016 101.21,74.656 101.621,76.379 C102.687,79.492 103.339,82.773 104.078,86.051 C103.589,87.117 102.851,87.938 102.195,88.918 C99.488,93.02 96.128,96.707 91.457,98.508 C90.39,98.836 89.324,99.328 88.261,99.574 C86.128,99.984 84.164,100.641 82.031,100.969 L81.785,100.887 C82.687,98.18 84.324,95.969 85.39,93.348 L86.785,91.051 C87.359,90.805 87.605,91.379 87.933,91.543 C88.179,91.871 88.753,92.035 88.589,92.527 C87.769,94.004 86.457,95.148 85.554,96.461 L85.636,96.543 C87.031,95.641 88.261,94.824 89.574,93.758 L89.816,93.758 C89.816,94.41 89.246,94.574 88.996,95.23 L87.933,96.871 L88.179,96.871 C89.164,96.133 90.312,95.395 91.21,94.496 C91.292,94.496 91.457,94.574 91.457,94.66 C91.128,95.477 90.554,96.215 90.472,96.953 C90.964,96.953 91.457,96.789 91.867,96.625 C94.898,94.984 97.851,92.934 99.98,90.066 C101.375,88.43 102.277,86.543 102.441,84.25 C102.359,83.262 102.277,82.281 102.031,81.379 L101.621,81.297 C96.703,82.691 91.867,84.492 86.703,85.395 C85.882,85.559 84.816,85.395 84.406,86.133 C82.769,90.805 80.23,94.984 77.851,99.246 C76.128,101.461 74.82,103.918 72.523,105.805 C71.128,107.281 69.164,108.02 67.523,109.168 C66.785,109.578 65.8,109.492 64.984,109.738 C63.093,110.312 61.21,109.738 59.164,109.82 L57.769,109.492 C54.984,108.262 52.523,106.543 49.984,104.738 C49.164,103.918 48.343,103.344 47.687,102.363 L47.933,102.117 C51.457,101.133 55.066,100.641 58.589,99.82 C59.246,99.574 59.902,99.328 60.554,99.328 L60.718,99.656 C60.476,100.477 60.636,101.461 60.066,102.199 C58.015,102.281 55.476,101.953 53.425,102.441 L53.425,102.523 C55.23,102.934 57.195,103.02 59,103.43 C59.164,103.43 59.082,103.672 59.082,103.672 L58.835,103.84 L54,104 L53.835,104.082 C55.23,104.656 56.867,104.906 58.261,105.395 C58.343,105.477 58.425,105.723 58.261,105.805 C56.949,105.887 55.718,105.641 54.492,105.969 C54.328,106.133 54.574,106.215 54.656,106.297 C55.964,107.281 57.441,107.773 58.917,108.426 C60.964,108.922 63.507,109.656 65.636,108.836 C68.507,107.691 71.128,106.051 73.179,103.594 L73.671,102.77 C72.441,101.625 70.718,101.051 69.242,100.23 C66.457,98.594 63.835,96.789 61.046,95.066 C57.933,95.805 55.066,97.281 51.867,98.016 C46.949,99.004 41.867,99.738 36.457,99.414 C34.082,99.086 32.031,98.102 29.984,97.035 C27.195,94.738 24.738,91.953 22.851,89 C22.113,86.789 22.277,84.25 21.949,81.953 C21.621,79.82 21.539,77.527 21.375,75.312 C21.457,75.066 21.621,75.066 21.867,75.066 C23.671,76.133 25.148,77.445 26.867,78.508 C28.425,79.574 29.984,80.395 31.292,81.625 C31.128,82.441 30.23,83.02 29.656,83.594 L29.164,83.594 L25.8,80.312 C25.558,80.477 25.8,80.805 25.8,81.051 L27.441,85.805 C27.441,85.887 27.441,86.051 27.277,86.051 L26.949,85.723 C26.046,84 25.394,82.281 24.328,80.641 L24.164,80.641 C23.835,81.625 24.656,82.691 24.246,83.672 C24.656,84.082 24.902,84.824 24.82,85.559 L24.738,85.641 C24.328,85.312 24.328,84.66 24.082,84.25 L23.261,82.691 L23.097,82.691 C22.769,83.758 23.261,84.66 23.179,85.723 C23.671,88.098 24.328,90.559 25.964,92.359 C27.441,94.328 29.984,95.312 32.113,96.461 C34.082,97.281 36.21,98.016 38.589,97.855 L38.753,97.605 C38.097,95.066 37.523,92.527 37.113,89.902 C36.621,87.605 36.375,85.312 36.128,82.938 C35.8,82.117 36.457,80.641 35.148,80.395 C34.328,79.742 33.179,79.492 32.523,78.59 C31.457,78.102 30.64,77.281 29.492,76.871 C28.015,75.641 26.375,74.824 24.902,73.594 C22.031,71.133 19.082,69.004 16.785,65.887 C16.046,64.902 15.394,63.918 14.656,62.855 C14.41,60.723 14.656,58.43 14.738,56.297 C14.82,54.902 15.066,53.594 15.394,52.281 C15.8,50.805 16.128,49.25 16.539,47.773 C17.851,46.215 19.574,44.578 21.05,43.184 C22.687,42.117 24.164,40.477 25.882,39.578 C26.128,39.578 26.21,39.742 26.292,39.906 L26.703,45.805 C26.621,47.773 27.031,49.578 26.949,51.543 C27.031,52.035 27.113,52.445 26.949,52.855 C26.21,52.691 25.476,52.527 24.82,52.117 C24.738,49.984 25.066,47.773 25.066,45.641 C24.738,45.641 24.656,46.051 24.574,46.215 C23.835,48.348 22.851,50.559 22.113,52.691 C22.031,52.773 21.949,53.02 21.785,52.855 C21.867,51.543 22.031,50.312 22.359,49.086 C22.523,48.266 22.933,47.527 22.933,46.625 C22.605,46.461 22.523,46.871 22.277,47.117 C21.128,48.594 20.312,50.066 19.082,51.543 C19,51.625 18.835,51.543 18.753,51.543 C18.753,50.723 19.164,49.984 19.41,49.25 L20.394,46.297 C19.984,46.215 19.738,46.871 19.41,47.035 C17.933,49.414 16.128,51.707 15.476,54.578 C15.148,56.379 14.984,58.184 15.554,59.984 C16.21,62.117 17.031,64.164 18.343,65.887 C18.425,66.133 18.753,65.969 18.917,65.887 C21.703,63.512 24.164,60.723 26.785,58.02 C28.261,56.707 29.574,55.395 30.964,54.086 C31.457,53.184 30.964,52.199 30.882,51.215 C30.312,48.676 30.23,45.887 29.984,43.266 C30.148,37.363 31.046,31.625 33.015,26.379 C33.835,24.824 34.492,23.348 35.312,21.871 C38.261,19.906 41.867,18.594 45.394,17.445 C48.589,17.363 51.703,17.609 54.41,18.594 L55.636,18.84 C56.785,19.168 58.015,19.414 59.082,19.906 C59.328,20.066 59,20.312 58.917,20.477 C55.882,22.691 53.015,24.824 50.23,27.117 L47.933,26.871 C47.769,26.789 47.769,26.543 47.933,26.461 C48.835,25.723 49.738,25.066 50.8,24.578 C51.867,23.594 53.261,22.937 54.246,21.953 L54.246,21.871 C53.097,21.953 51.949,22.281 50.882,22.609 C50.476,22.773 50.066,22.937 49.574,22.937 C49.656,22.445 50.312,22.445 50.636,22.199 C51.375,21.871 51.949,21.707 52.523,21.133 L52.523,20.887 L51.375,20.887 C49.984,20.969 48.671,21.133 47.195,20.969 L47.277,20.805 C48.507,20.066 50.066,19.988 51.128,19.086 C50.964,18.676 50.476,18.84 50.148,18.676 C48.507,18.43 46.703,18.348 45.066,18.594 C43.343,19.168 41.539,19.824 39.984,20.723 C38.671,21.461 37.605,22.363 36.703,23.512 C35.554,24.984 34.328,26.297 33.753,28.102 C33.753,28.43 33.343,29.168 34.082,29.086 C36.867,29.332 39.656,29.414 42.441,29.742 C44.656,29.984 47.031,30.148 49.164,30.641 C49.902,30.723 50.882,31.297 51.539,30.805 C55.964,27.281 60.554,23.758 65.554,21.215 L68.996,19.332 L70.718,18.758 C72.523,18.184 74.328,17.035 76.457,17.281 z M80.964,18.758" fill="#231F20"/>
      <path d="M61.21,90.148 C61.046,90.312 60.964,90.641 61.21,90.887 C61.457,91.297 62.031,91.215 62.441,91.051 C62.769,90.887 63.015,90.559 62.851,90.23 C62.441,89.82 61.621,89.82 61.21,90.148 M81.457,87.605 C80.718,89.738 79.734,91.789 78.507,93.676 C77.441,95.887 75.882,97.938 74.492,100.066 C74.082,100.477 73.671,99.984 73.261,99.82 C72.523,99.41 71.703,98.836 70.964,98.426 C68.589,97.035 65.964,95.887 63.671,94.164 C61.949,93.184 60.472,91.953 59.082,90.641 C58.261,89.82 57.359,89.41 56.703,88.512 C56.867,88.102 57.277,88.594 57.605,88.43 C60.226,88.754 63.015,89.082 65.718,88.84 C66.703,88.84 67.523,88.266 68.507,88.512 C68.507,88.918 68.015,89 67.687,89.328 C66.375,90.312 64.656,91.133 63.343,92.035 C63.179,92.199 62.933,92.359 63.015,92.609 L64.41,93.508 C67.523,95.395 70.636,97.281 74,98.594 C74.492,98.266 74.816,97.773 75.226,97.281 C76.21,95.723 77.113,94.082 77.851,92.277 L77.851,92.035 C77.031,92.199 76.375,92.773 75.554,93.02 C75.472,93.02 75.308,93.098 75.308,92.934 L75.472,92.688 C75.964,92.199 76.539,91.789 76.949,91.215 C76.292,90.969 75.8,91.625 75.144,91.543 C74.898,91.379 75.144,91.133 75.226,91.051 C76.046,90.312 77.113,89.82 77.851,89 L77.687,88.918 C76.375,89.164 75.144,89.656 73.835,89.82 C73.425,89.902 73.425,89.492 73.425,89.246 C73.425,88.672 73.507,88.02 74.246,88.02 C76.375,87.281 78.835,87.363 81.21,87.363 z M81.457,87.605" fill="#231F20"/>
      <path d="M62.359,90.477 C62.359,90.641 62.277,90.887 62.113,90.969 C61.949,90.969 61.785,90.887 61.703,90.723 C61.621,90.477 61.785,90.312 61.949,90.23 C62.195,90.148 62.277,90.312 62.359,90.477" fill="#231F20"/>
      <path d="M39.82,101.789 C39.574,102.035 39.328,102.445 39.41,102.855 C39.656,103.098 39.82,103.43 40.144,103.508 C40.476,103.508 40.804,103.43 40.964,103.262 C41.128,102.934 41.457,102.445 41.128,102.117 C40.804,101.871 40.312,101.461 39.82,101.789 M64.898,99.086 C67.195,100.312 69.492,101.543 71.539,103.098 C71.703,103.508 71.375,103.84 71.046,104.082 C68.179,106.625 64.246,108.672 59.902,108.102 C59.738,107.527 59.656,106.543 60.148,106.051 L64.898,105.969 C65.718,105.805 66.539,105.641 67.277,105.312 L67.113,105.148 C65.066,104.738 63.015,104.496 60.882,104.164 C60.718,104.082 60.882,103.84 61.046,103.84 C62.769,103.594 64.656,103.754 66.375,103.43 L66.128,103.184 C64.734,102.691 63.343,102.445 61.867,102.035 C61.703,101.953 61.621,101.707 61.703,101.543 C62.359,101.133 63.097,101.625 63.753,101.379 C64.41,101.379 65.308,101.543 65.8,101.133 L65.39,100.723 C63.753,99.738 62.277,98.508 60.39,98.016 C58.589,98.016 57.031,98.754 55.312,99.164 C52.523,99.984 49.656,100.559 46.785,101.051 C46.046,101.297 45.23,101.297 44.738,101.707 C45.394,102.773 46.703,103.754 47.769,104.574 C49.246,105.805 50.886,107.363 52.523,108.59 L52.523,108.922 C49.492,108.02 46.539,107.031 43.671,105.805 L38.835,103.508 C37.359,102.445 35.804,101.625 34.246,100.477 C34.082,100.312 34.41,100.148 34.492,100.148 L35.964,100.312 C37.851,100.395 39.82,100.477 41.621,100.477 C44.656,100.477 47.441,99.902 50.148,99.328 L51.375,99.246 C54.574,98.426 57.687,97.605 60.718,96.543 C62.277,97.281 63.589,98.262 64.898,99.086" fill="#231F20"/>
      <path d="M40.718,102.523 C40.718,102.77 40.472,102.855 40.308,102.934 C39.984,102.934 39.984,102.605 40.066,102.363 C40.308,102.031 40.718,102.281 40.718,102.523" fill="#231F20"/>
      <path d="M77.441,104.984 C77.277,105.312 77.031,105.723 77.277,106.133 C77.441,106.461 77.851,106.707 78.257,106.625 C78.667,106.379 79.164,106.051 79,105.395 C78.917,104.656 77.933,104.496 77.441,104.984 M101.128,83.512 C100.308,86.297 98.835,88.754 97.113,90.969 C95.718,92.277 94.488,94.004 92.769,95.23 L92.687,95.148 L92.769,94.82 C93.753,93.59 94.816,92.527 95.308,91.051 C94.16,91.789 93.015,93.098 91.703,93.758 C91.375,93.508 91.703,93.098 91.867,92.934 C93.015,91.953 93.753,90.641 94.738,89.578 L94.898,89.082 C93.832,89.578 93.015,90.312 91.949,90.969 L89.734,92.445 C89.574,92.445 89.574,92.277 89.574,92.117 L89.898,91.707 C91.457,90.066 93.343,88.594 94.656,86.625 C94.656,86.543 94.738,86.379 94.656,86.379 C91.867,87.035 89.082,87.77 86.457,88.754 L86.046,89.164 C84.902,91.789 83.753,94.328 82.523,96.871 C81.867,97.855 81.375,99.086 80.636,100.066 C79.98,101.051 79.41,101.871 79.246,103.102 L79.488,103.102 C83.015,102.281 86.539,101.379 89.98,100.395 L90.144,100.395 L90.144,100.723 L87.769,102.363 C85.718,104 83.261,105.066 80.882,106.051 C78.097,107.773 74.57,108.02 71.292,108.836 C71.21,108.836 71.046,108.754 71.046,108.672 L71.21,108.348 C72.769,106.707 74.246,105.23 75.718,103.594 C77.851,101.051 79.82,97.938 81.539,95.148 C82.765,92.773 83.835,90.395 85.066,88.02 C85.226,87.605 85.472,87.117 85.964,86.953 C88.671,86.133 91.457,85.23 94.16,84.492 C96.292,83.836 98.425,83.184 100.636,82.852 C101.128,82.691 101.046,83.184 101.128,83.512" fill="#231F20"/>
      <path d="M78.343,105.559 C78.343,105.723 78.179,105.805 78.015,105.887 C77.687,105.887 77.605,105.559 77.687,105.312 C77.933,105.066 78.261,105.312 78.343,105.559" fill="#231F20"/>
    </g>
    <text transform="matrix(1, 0, 0, 1, 256.166, 59.932)">
      <tspan x="-135.053" y="1.002" font-family="KhmerMN" font-size="42" fill="#000000">R</tspan>
      <tspan x="-111.9" y="1.002" font-family="KhmerMN" font-size="38" fill="#000000">esearch </tspan>
      <tspan x="16.053" y="1.002" font-family="KhmerMN" font-size="42" fill="#000000">I</tspan>
      <tspan x="26.225" y="1.002" font-family="KhmerMN" font-size="38" fill="#000000">nstitute</tspan>
    </text>
    <g>
      <path d="M156.286,69.103 C155.658,69.926 152.517,73.737 151.847,74.658 C148.162,79.543 147.171,84.023 147.171,88.657 C147.171,94.519 149.167,99.767 151.777,104.08 C152.28,104.904 154.82,108.658 155.392,109.58 L157.765,104.499 C156.732,103.871 154.653,102.643 152.713,99.558 C150.577,96.166 149.767,91.895 149.767,88.657 C149.767,85.056 150.814,80.366 153.913,77.184 C155.462,75.635 157.025,74.811 157.891,74.351 z M156.286,69.103" fill="#100F0D"/>
      <g>
        <path d="M166.474,104.072 C166.181,102.997 165.762,101.336 165.497,97.707 C165.26,94.302 165.232,91.538 165.232,89.459 C165.232,86.611 165.288,83.178 165.413,80.358 C166.209,80.247 166.53,80.219 167.088,80.219 C170.619,80.219 171.736,82.577 171.736,84.364 C171.736,85.62 171.178,87.211 170.173,88.133 C169.251,88.942 168.33,89.235 167.66,89.459 C167.59,89.752 167.535,90.087 167.507,90.422 C168.163,90.826 168.875,91.273 170.829,94.274 C173.243,97.973 174.402,100.848 175.267,103.067 L178.784,100.373 C174.96,96.2 173.16,93.757 170.759,90.422 C172.029,89.5 174.346,87.756 174.346,84.434 C174.346,83.094 173.871,80.442 171.233,78.879 C169.279,77.734 166.976,77.734 166.083,77.734 C165.106,77.734 164.757,77.776 162.775,77.999 C163.068,81.921 163.222,86.318 163.222,90.798 C163.222,97.191 163.04,99.815 162.189,104.072 z M166.474,104.072" fill="#100F0D"/>
        <path d="M189.767,104.114 C196.215,104.114 201.449,98.336 201.449,90.645 C201.449,83.987 197.402,77.818 190.479,77.818 C187.394,77.818 184.407,79.297 182.188,81.949 C179.201,85.536 178.964,89.054 178.964,91.05 C178.964,95.977 181.057,99.187 182.69,100.932 C184.672,103.067 187.394,104.114 189.767,104.114 z M190.116,101.406 C184.756,101.406 181.476,96.088 181.476,90.91 C181.476,85.732 184.882,80.512 190.479,80.512 C196.271,80.512 198.881,86.43 198.881,90.91 C198.881,97.68 193.871,101.406 190.116,101.406 z M190.116,101.406" fill="#100F0D"/>
      </g>
      <path d="M212.579,104.295 C214.059,99.006 218.581,85.871 219.418,83.652 C221.665,90.394 224.122,97.707 225.099,104.295 L226.955,104.295 C227.137,103.556 227.346,102.704 227.723,101.448 C228.909,97.596 230.682,92.529 231.492,90.352 C234.423,82.396 235.902,80.47 236.879,79.186 L233.613,76.632 C232.678,80.358 232.371,81.321 230.836,86.053 C229.412,90.352 227.22,96.744 226.551,98.629 C225.839,96.563 224.736,93.353 223.494,89.096 C222.28,85.062 221.344,81.614 220.633,78.516 L218.581,78.362 C217.701,83.359 213.849,93.716 211.993,98.308 C210.067,93.353 209.592,92.166 208.057,87.239 C206.549,82.466 206.214,80.917 205.53,77.399 L202.195,79.618 C203.088,81.182 203.59,82.326 203.856,82.912 C205.447,86.541 206.815,90.31 208.085,94.12 C209.969,99.745 210.276,101.671 210.709,104.295 z M212.579,104.295" fill="#100F0D"/>
      <path d="M259.422,69.554 C258.794,70.377 255.653,74.188 254.984,75.109 C251.299,79.994 250.308,84.474 250.308,89.108 C250.308,94.97 252.304,100.218 254.914,104.531 C255.416,105.355 257.956,109.109 258.529,110.031 L260.902,104.95 C259.869,104.322 257.789,103.094 255.849,100.009 C253.713,96.617 252.904,92.346 252.904,89.108 C252.904,85.507 253.951,80.817 257.049,77.635 C258.599,76.086 260.162,75.262 261.027,74.802 z M259.422,69.554" fill="#100F0D"/>
      <g>
        <path d="M288.461,102.662 C287.596,101.588 286.982,100.778 285.349,97.568 C282.488,91.873 280.436,86.793 279.138,83.513 C277.951,80.554 277.547,79.367 277.1,77.595 L275.997,77.288 C275.09,79.995 274.197,81.921 273.666,83.024 L266.59,98.671 C265.711,100.639 265.138,101.741 264.496,102.858 L267.958,104.882 C267.986,103.444 268.069,102.662 268.544,100.932 C269.409,97.707 270.149,96.158 270.945,94.679 C272.717,94.525 276.025,94.497 277.979,94.497 C279.221,94.497 280.617,94.567 281.413,94.637 C282.362,96.605 283.967,100.304 284.902,104.742 z M280.324,91.901 C276.765,92.055 274.699,92.124 271.95,92.055 C272.424,90.826 274.35,86.165 276.067,82.689 C276.388,83.429 276.57,83.806 278.161,87.1 C278.845,88.537 279.487,89.975 280.324,91.901 z M280.324,91.901" fill="#100F0D"/>
        <path d="M294.554,104.77 C293.87,100.96 293.703,95.042 293.703,90.98 C293.703,88.174 293.786,86.053 293.814,85.062 C295.922,86.988 298.909,90.603 300.863,92.976 C305.413,98.559 306.488,100.527 307.256,102.076 C308.051,101.783 308.707,101.336 309.084,101.071 C309,98.336 309,94.902 309,92.124 C309,89.542 309.112,84.839 309.321,81.586 C309.503,79.367 309.74,77.999 309.949,76.925 L306.334,76.478 C306.725,78.739 307.102,80.986 307.102,86.904 C307.102,89.207 306.962,94.19 306.865,96.312 C296.09,83.513 295.587,82.801 292.782,78.921 C292.516,79.032 291.693,79.507 291.274,79.842 C291.386,80.582 291.483,81.251 291.567,82.145 C291.888,85.467 291.888,100.038 291.065,104.77 z M294.554,104.77" fill="#100F0D"/>
        <path d="M323.651,104.072 C323.357,103.039 322.757,100.75 322.757,96.633 C322.757,94.567 322.883,93.241 322.939,92.459 C324.39,89.863 326.079,86.835 328.061,84.141 C330.364,81.028 331.76,80.33 332.528,79.953 L329.708,77.036 C328.675,79.214 328.536,79.549 325.507,84.322 C324.474,85.955 322.967,88.649 321.99,90.31 C316.63,81.586 316.044,79.702 315.276,77.329 L312.163,80.442 C312.666,80.847 313.503,81.545 314.676,83.094 C316.127,85.02 317.342,86.946 317.844,87.756 L320.636,92.571 C320.664,93.492 320.692,94.386 320.692,95.753 C320.692,98.964 320.329,101.783 319.505,104.072 z M323.651,104.072" fill="#100F0D"/>
        <path d="M343.036,104.114 C349.484,104.114 354.718,98.336 354.718,90.645 C354.718,83.987 350.671,77.818 343.748,77.818 C340.663,77.818 337.676,79.297 335.457,81.949 C332.47,85.536 332.233,89.054 332.233,91.05 C332.233,95.977 334.326,99.187 335.959,100.932 C337.941,103.067 340.663,104.114 343.036,104.114 z M343.385,101.406 C338.025,101.406 334.745,96.088 334.745,90.91 C334.745,85.732 338.151,80.512 343.748,80.512 C349.54,80.512 352.15,86.43 352.15,90.91 C352.15,97.68 347.139,101.406 343.385,101.406 z M343.385,101.406" fill="#100F0D"/>
        <path d="M362.886,104.77 C362.202,100.96 362.035,95.042 362.035,90.98 C362.035,88.174 362.118,86.053 362.146,85.062 C364.254,86.988 367.241,90.603 369.195,92.976 C373.745,98.559 374.82,100.527 375.587,102.076 C376.383,101.783 377.039,101.336 377.416,101.071 C377.332,98.336 377.332,94.902 377.332,92.124 C377.332,89.542 377.444,84.839 377.653,81.586 C377.835,79.367 378.072,77.999 378.281,76.925 L374.666,76.478 C375.057,78.739 375.434,80.986 375.434,86.904 C375.434,89.207 375.294,94.19 375.197,96.312 C364.421,83.513 363.919,82.801 361.113,78.921 C360.848,79.032 360.025,79.507 359.606,79.842 C359.718,80.582 359.815,81.251 359.899,82.145 C360.22,85.467 360.22,100.038 359.397,104.77 z M362.886,104.77" fill="#100F0D"/>
      </g>
    </g>
    <text transform="matrix(1, 0, 0, 1, 123.338, 23.568)">
      <tspan x="-10.264" y="4.5" font-family="BigCaslon-Medium" font-size="20" fill="#000000">the</tspan>
    </text>
    <text transform="matrix(1, 0, 0, 1, 130.159, 89.567)">
      <tspan x="-7.72" y="4.5" font-family="BigCaslon-Medium" font-size="20" fill="#000000">at</tspan>
    </text>
  </g>
</svg>
