<?xml version="1.0" ?><!DOCTYPE svg  PUBLIC '-//W3C//DTD SVG 1.0//EN'  'http://www.w3.org/TR/2001/REC-SVG-20010904/DTD/svg10.dtd'><svg height="110px" style="enable-background:new 0 0 110 110;" version="1.0" viewBox="0 0 110 110" width="110px" xml:space="preserve" xmlns="http://www.w3.org/2000/svg" xmlns:xlink="http://www.w3.org/1999/xlink"><g id="R-Multicolor"><circle cx="55" cy="55" r="55" style="fill:#32BEA6;"/><g><g><path d="M55.036,75c0-7.002,5.231-14.875,11.622-20.161c-0.668-15.225-1.914-29.942-9.622-31.639     c-0.63-0.14-1.3-0.2-2-0.2s-1.37,0.06-2,0.2c-7.663,1.686-8.941,16.106-9.622,31.639C49.805,60.125,55.036,67.998,55.036,75z" style="fill:#FACB1B;"/></g><g><path d="M53.036,23.2c-7.663,1.686-8.941,16.106-9.622,31.639C49.805,60.125,55.036,67.998,55.036,75V23     C54.336,23,53.666,23.06,53.036,23.2z" style="fill:#FBE158;"/></g><g><path d="M55.036,75c0-15-24-34-32-23c18.231,0,6.101,28.523,26.288,30.834C50.1,85.25,52.363,87,55.036,87     s4.937-1.75,5.712-4.166C80.936,80.523,68.806,52,87.036,52C79.036,41,55.036,60,55.036,75z" style="fill:#0C7367;"/></g><g><path d="M23.036,52c18.231,0,6.101,28.523,26.288,30.834C50.1,85.25,52.363,87,55.036,87V75     C55.036,60,31.036,41,23.036,52z" style="fill:#099686;"/></g></g></g></svg>